<svg width="589" height="516" viewBox="0 0 589 516" fill="none" xmlns="http://www.w3.org/2000/svg">
<rect width="589" height="516" fill="#FEFEFE"/>
<path d="M123.24 258V231.72H128.352V258H123.24ZM127.632 247.056V242.736L138.144 242.7V247.02L127.632 247.056ZM127.632 236.04V231.72H138.648V236.04H127.632ZM154.129 258V252.204H153.301V245.76C153.301 244.632 153.025 243.792 152.473 243.24C151.921 242.688 151.069 242.412 149.917 242.412C149.317 242.412 148.597 242.424 147.757 242.448C146.917 242.472 146.065 242.508 145.201 242.556C144.361 242.58 143.605 242.616 142.933 242.664V238.416C143.485 238.368 144.109 238.32 144.805 238.272C145.501 238.224 146.209 238.2 146.929 238.2C147.673 238.176 148.369 238.164 149.017 238.164C151.033 238.164 152.701 238.428 154.021 238.956C155.365 239.484 156.373 240.312 157.045 241.44C157.741 242.568 158.089 244.044 158.089 245.868V258H154.129ZM147.829 258.504C146.413 258.504 145.165 258.252 144.085 257.748C143.029 257.244 142.201 256.524 141.601 255.588C141.025 254.652 140.737 253.524 140.737 252.204C140.737 250.764 141.085 249.588 141.781 248.676C142.501 247.764 143.497 247.08 144.769 246.624C146.065 246.168 147.577 245.94 149.305 245.94H153.841V248.928H149.233C148.081 248.928 147.193 249.216 146.569 249.792C145.969 250.344 145.669 251.064 145.669 251.952C145.669 252.84 145.969 253.56 146.569 254.112C147.193 254.664 148.081 254.94 149.233 254.94C149.929 254.94 150.565 254.82 151.141 254.58C151.741 254.316 152.233 253.884 152.617 253.284C153.025 252.66 153.253 251.82 153.301 250.764L154.525 252.168C154.405 253.536 154.069 254.688 153.517 255.624C152.989 256.56 152.245 257.28 151.285 257.784C150.349 258.264 149.197 258.504 147.829 258.504ZM172.125 258.684C170.421 258.684 168.945 258.396 167.697 257.82C166.473 257.244 165.441 256.476 164.601 255.516C163.785 254.556 163.173 253.476 162.765 252.276C162.357 251.076 162.153 249.852 162.153 248.604V247.92C162.153 246.6 162.357 245.34 162.765 244.14C163.197 242.916 163.833 241.836 164.673 240.9C165.513 239.94 166.545 239.184 167.769 238.632C169.017 238.056 170.457 237.768 172.089 237.768C173.793 237.768 175.317 238.104 176.661 238.776C178.005 239.424 179.073 240.336 179.865 241.512C180.681 242.688 181.137 244.056 181.233 245.616H176.373C176.253 244.608 175.821 243.768 175.077 243.096C174.357 242.424 173.361 242.088 172.089 242.088C170.985 242.088 170.061 242.352 169.317 242.88C168.597 243.408 168.057 244.14 167.697 245.076C167.337 245.988 167.157 247.044 167.157 248.244C167.157 249.396 167.325 250.44 167.661 251.376C168.021 252.312 168.561 253.044 169.281 253.572C170.025 254.1 170.973 254.364 172.125 254.364C172.989 254.364 173.733 254.208 174.357 253.896C174.981 253.584 175.473 253.152 175.833 252.6C176.217 252.048 176.457 251.424 176.553 250.728H181.413C181.317 252.312 180.849 253.704 180.009 254.904C179.193 256.08 178.101 257.004 176.733 257.676C175.389 258.348 173.853 258.684 172.125 258.684ZM171.945 267.396C171.417 267.396 170.901 267.348 170.397 267.252C169.917 267.18 169.509 267.096 169.173 267V263.868C169.509 263.964 169.905 264.048 170.361 264.12C170.841 264.216 171.309 264.264 171.765 264.264C172.485 264.264 173.013 264.156 173.349 263.94C173.685 263.748 173.853 263.484 173.853 263.148C173.853 262.836 173.721 262.596 173.457 262.428C173.217 262.26 172.797 262.176 172.197 262.176H170.505V257.568H173.529V261.096L171.657 259.62H172.197C173.733 259.62 174.945 259.92 175.833 260.52C176.745 261.12 177.201 262.008 177.201 263.184C177.201 264.36 176.745 265.356 175.833 266.172C174.921 266.988 173.625 267.396 171.945 267.396ZM197.266 258V252.204H196.438V245.76C196.438 244.632 196.162 243.792 195.61 243.24C195.058 242.688 194.206 242.412 193.054 242.412C192.454 242.412 191.734 242.424 190.894 242.448C190.054 242.472 189.202 242.508 188.338 242.556C187.498 242.58 186.742 242.616 186.07 242.664V238.416C186.622 238.368 187.246 238.32 187.942 238.272C188.638 238.224 189.346 238.2 190.066 238.2C190.81 238.176 191.506 238.164 192.154 238.164C194.17 238.164 195.838 238.428 197.158 238.956C198.502 239.484 199.51 240.312 200.182 241.44C200.878 242.568 201.226 244.044 201.226 245.868V258H197.266ZM190.966 258.504C189.55 258.504 188.302 258.252 187.222 257.748C186.166 257.244 185.338 256.524 184.738 255.588C184.162 254.652 183.874 253.524 183.874 252.204C183.874 250.764 184.222 249.588 184.918 248.676C185.638 247.764 186.634 247.08 187.906 246.624C189.202 246.168 190.714 245.94 192.442 245.94H196.978V248.928H192.37C191.218 248.928 190.33 249.216 189.706 249.792C189.106 250.344 188.806 251.064 188.806 251.952C188.806 252.84 189.106 253.56 189.706 254.112C190.33 254.664 191.218 254.94 192.37 254.94C193.066 254.94 193.702 254.82 194.278 254.58C194.878 254.316 195.37 253.884 195.754 253.284C196.162 252.66 196.39 251.82 196.438 250.764L197.662 252.168C197.542 253.536 197.206 254.688 196.654 255.624C196.126 256.56 195.382 257.28 194.422 257.784C193.486 258.264 192.334 258.504 190.966 258.504ZM221.448 258.612C218.76 258.612 216.648 258.048 215.112 256.92C213.6 255.768 212.808 254.184 212.736 252.168H217.236C217.308 252.84 217.68 253.452 218.352 254.004C219.024 254.556 220.08 254.832 221.52 254.832C222.72 254.832 223.668 254.616 224.364 254.184C225.084 253.752 225.444 253.164 225.444 252.42C225.444 251.772 225.168 251.256 224.616 250.872C224.088 250.488 223.176 250.236 221.88 250.116L220.152 249.936C217.968 249.696 216.288 249.072 215.112 248.064C213.936 247.056 213.348 245.712 213.348 244.032C213.348 242.688 213.684 241.56 214.356 240.648C215.028 239.736 215.952 239.052 217.128 238.596C218.328 238.116 219.696 237.876 221.232 237.876C223.632 237.876 225.576 238.404 227.064 239.46C228.552 240.516 229.332 242.064 229.404 244.104H224.904C224.856 243.432 224.52 242.856 223.896 242.376C223.272 241.896 222.372 241.656 221.196 241.656C220.14 241.656 219.324 241.86 218.748 242.268C218.172 242.676 217.884 243.204 217.884 243.852C217.884 244.476 218.112 244.956 218.568 245.292C219.048 245.628 219.816 245.856 220.872 245.976L222.6 246.156C224.904 246.396 226.704 247.032 228 248.064C229.32 249.096 229.98 250.488 229.98 252.24C229.98 253.536 229.62 254.664 228.9 255.624C228.204 256.56 227.22 257.292 225.948 257.82C224.676 258.348 223.176 258.612 221.448 258.612ZM242.862 258.684C241.182 258.684 239.706 258.396 238.434 257.82C237.186 257.244 236.142 256.476 235.302 255.516C234.486 254.532 233.862 253.44 233.43 252.24C233.022 251.04 232.818 249.816 232.818 248.568V247.884C232.818 246.588 233.022 245.34 233.43 244.14C233.862 242.916 234.486 241.836 235.302 240.9C236.142 239.94 237.174 239.184 238.398 238.632C239.622 238.056 241.038 237.768 242.646 237.768C244.758 237.768 246.522 238.236 247.938 239.172C249.378 240.084 250.458 241.296 251.178 242.808C251.898 244.296 252.258 245.904 252.258 247.632V249.432H234.942V246.372H249.126L247.578 247.884C247.578 246.636 247.398 245.568 247.038 244.68C246.678 243.792 246.126 243.108 245.382 242.628C244.662 242.148 243.75 241.908 242.646 241.908C241.542 241.908 240.606 242.16 239.838 242.664C239.07 243.168 238.482 243.9 238.074 244.86C237.69 245.796 237.498 246.924 237.498 248.244C237.498 249.468 237.69 250.56 238.074 251.52C238.458 252.456 239.046 253.2 239.838 253.752C240.63 254.28 241.638 254.544 242.862 254.544C244.086 254.544 245.082 254.304 245.85 253.824C246.618 253.32 247.11 252.708 247.326 251.988H251.934C251.646 253.332 251.094 254.508 250.278 255.516C249.462 256.524 248.418 257.304 247.146 257.856C245.898 258.408 244.47 258.684 242.862 258.684ZM263.098 258.612C260.842 258.612 259.09 257.868 257.842 256.38C256.618 254.892 256.006 252.684 256.006 249.756V238.416H261.01V250.188C261.01 251.388 261.346 252.348 262.018 253.068C262.69 253.764 263.602 254.112 264.754 254.112C265.906 254.112 266.842 253.74 267.562 252.996C268.306 252.252 268.678 251.244 268.678 249.972V238.416H273.682V258H269.722V249.684H270.118C270.118 251.652 269.866 253.296 269.362 254.616C268.858 255.936 268.102 256.932 267.094 257.604C266.086 258.276 264.826 258.612 263.314 258.612H263.098ZM287.199 265.2V238.452H291.159V246.876L290.547 246.84C290.643 244.848 291.051 243.18 291.771 241.836C292.515 240.492 293.499 239.496 294.723 238.848C295.947 238.176 297.315 237.84 298.827 237.84C300.219 237.84 301.467 238.092 302.571 238.596C303.699 239.1 304.659 239.808 305.451 240.72C306.267 241.632 306.891 242.7 307.323 243.924C307.755 245.124 307.971 246.42 307.971 247.812V248.568C307.971 249.984 307.755 251.304 307.323 252.528C306.915 253.728 306.303 254.796 305.487 255.732C304.695 256.644 303.735 257.364 302.607 257.892C301.479 258.396 300.219 258.648 298.827 258.648C297.363 258.648 296.019 258.348 294.795 257.748C293.595 257.124 292.623 256.176 291.879 254.904C291.135 253.608 290.715 251.94 290.619 249.9L292.203 252.312V265.2H287.199ZM297.567 254.436C298.647 254.436 299.583 254.172 300.375 253.644C301.191 253.116 301.827 252.384 302.283 251.448C302.739 250.488 302.967 249.408 302.967 248.208C302.967 246.96 302.739 245.88 302.283 244.968C301.827 244.056 301.191 243.348 300.375 242.844C299.583 242.316 298.647 242.052 297.567 242.052C296.583 242.052 295.671 242.268 294.831 242.7C294.015 243.132 293.343 243.768 292.815 244.608C292.311 245.448 292.059 246.456 292.059 247.632V249.072C292.059 250.2 292.323 251.16 292.851 251.952C293.379 252.744 294.063 253.356 294.903 253.788C295.743 254.22 296.631 254.436 297.567 254.436ZM321.767 258.684C320.039 258.684 318.515 258.408 317.195 257.856C315.875 257.304 314.759 256.56 313.847 255.624C312.935 254.664 312.239 253.584 311.759 252.384C311.303 251.184 311.075 249.936 311.075 248.64V247.884C311.075 246.54 311.315 245.268 311.795 244.068C312.299 242.844 313.007 241.764 313.919 240.828C314.855 239.868 315.983 239.124 317.303 238.596C318.623 238.044 320.111 237.768 321.767 237.768C323.423 237.768 324.911 238.044 326.231 238.596C327.551 239.124 328.667 239.868 329.579 240.828C330.515 241.764 331.223 242.844 331.703 244.068C332.183 245.268 332.423 246.54 332.423 247.884V248.64C332.423 249.936 332.183 251.184 331.703 252.384C331.247 253.584 330.563 254.664 329.651 255.624C328.739 256.56 327.623 257.304 326.303 257.856C324.983 258.408 323.471 258.684 321.767 258.684ZM321.767 254.4C322.991 254.4 324.023 254.136 324.863 253.608C325.703 253.056 326.339 252.324 326.771 251.412C327.203 250.476 327.419 249.42 327.419 248.244C327.419 247.044 327.191 245.988 326.735 245.076C326.303 244.14 325.655 243.408 324.791 242.88C323.951 242.328 322.943 242.052 321.767 242.052C320.591 242.052 319.571 242.328 318.707 242.88C317.867 243.408 317.219 244.14 316.763 245.076C316.307 245.988 316.079 247.044 316.079 248.244C316.079 249.42 316.295 250.476 316.727 251.412C317.183 252.324 317.831 253.056 318.671 253.608C319.511 254.136 320.543 254.4 321.767 254.4ZM343.897 258.612C341.209 258.612 339.097 258.048 337.561 256.92C336.049 255.768 335.257 254.184 335.185 252.168H339.685C339.757 252.84 340.129 253.452 340.801 254.004C341.473 254.556 342.529 254.832 343.969 254.832C345.169 254.832 346.117 254.616 346.813 254.184C347.533 253.752 347.893 253.164 347.893 252.42C347.893 251.772 347.617 251.256 347.065 250.872C346.537 250.488 345.625 250.236 344.329 250.116L342.601 249.936C340.417 249.696 338.737 249.072 337.561 248.064C336.385 247.056 335.797 245.712 335.797 244.032C335.797 242.688 336.133 241.56 336.805 240.648C337.477 239.736 338.401 239.052 339.577 238.596C340.777 238.116 342.145 237.876 343.681 237.876C346.081 237.876 348.025 238.404 349.513 239.46C351.001 240.516 351.781 242.064 351.853 244.104H347.353C347.305 243.432 346.969 242.856 346.345 242.376C345.721 241.896 344.821 241.656 343.645 241.656C342.589 241.656 341.773 241.86 341.197 242.268C340.621 242.676 340.333 243.204 340.333 243.852C340.333 244.476 340.561 244.956 341.017 245.292C341.497 245.628 342.265 245.856 343.321 245.976L345.049 246.156C347.353 246.396 349.153 247.032 350.449 248.064C351.769 249.096 352.429 250.488 352.429 252.24C352.429 253.536 352.069 254.664 351.349 255.624C350.653 256.56 349.669 257.292 348.397 257.82C347.125 258.348 345.625 258.612 343.897 258.612ZM365.059 258.252C363.259 258.252 361.771 258.024 360.595 257.568C359.443 257.088 358.579 256.296 358.003 255.192C357.427 254.064 357.139 252.552 357.139 250.656L357.175 232.944H361.855L361.819 250.98C361.819 251.94 362.071 252.684 362.575 253.212C363.103 253.716 363.847 253.968 364.807 253.968H367.867V258.252H365.059ZM354.043 242.124V238.452H367.867V242.124H354.043ZM391.68 258V252.204H390.852V245.76C390.852 244.632 390.576 243.792 390.024 243.24C389.472 242.688 388.62 242.412 387.468 242.412C386.868 242.412 386.148 242.424 385.308 242.448C384.468 242.472 383.616 242.508 382.752 242.556C381.912 242.58 381.156 242.616 380.484 242.664V238.416C381.036 238.368 381.66 238.32 382.356 238.272C383.052 238.224 383.76 238.2 384.48 238.2C385.224 238.176 385.92 238.164 386.568 238.164C388.584 238.164 390.252 238.428 391.572 238.956C392.916 239.484 393.924 240.312 394.596 241.44C395.292 242.568 395.64 244.044 395.64 245.868V258H391.68ZM385.38 258.504C383.964 258.504 382.716 258.252 381.636 257.748C380.58 257.244 379.752 256.524 379.152 255.588C378.576 254.652 378.288 253.524 378.288 252.204C378.288 250.764 378.636 249.588 379.332 248.676C380.052 247.764 381.048 247.08 382.32 246.624C383.616 246.168 385.128 245.94 386.856 245.94H391.392V248.928H386.784C385.632 248.928 384.744 249.216 384.12 249.792C383.52 250.344 383.22 251.064 383.22 251.952C383.22 252.84 383.52 253.56 384.12 254.112C384.744 254.664 385.632 254.94 386.784 254.94C387.48 254.94 388.116 254.82 388.692 254.58C389.292 254.316 389.784 253.884 390.168 253.284C390.576 252.66 390.804 251.82 390.852 250.764L392.076 252.168C391.956 253.536 391.62 254.688 391.068 255.624C390.54 256.56 389.796 257.28 388.836 257.784C387.9 258.264 386.748 258.504 385.38 258.504ZM415.472 265.2V252.204L416.948 249.9C416.876 251.772 416.492 253.368 415.796 254.688C415.1 255.984 414.164 256.968 412.988 257.64C411.812 258.312 410.456 258.648 408.92 258.648C407.528 258.648 406.268 258.396 405.14 257.892C404.012 257.364 403.04 256.644 402.224 255.732C401.432 254.796 400.808 253.728 400.352 252.528C399.92 251.304 399.704 249.984 399.704 248.568V247.812C399.704 246.42 399.932 245.124 400.388 243.924C400.844 242.7 401.48 241.644 402.296 240.756C403.136 239.844 404.12 239.136 405.248 238.632C406.4 238.104 407.684 237.84 409.1 237.84C410.732 237.84 412.148 238.188 413.348 238.884C414.548 239.58 415.484 240.6 416.156 241.944C416.852 243.264 417.236 244.884 417.308 246.804H416.516V238.452H420.476V265.2H415.472ZM410.216 254.364C411.2 254.364 412.1 254.148 412.916 253.716C413.732 253.26 414.38 252.612 414.86 251.772C415.364 250.908 415.616 249.9 415.616 248.748V247.308C415.616 246.156 415.364 245.196 414.86 244.428C414.356 243.636 413.696 243.036 412.88 242.628C412.064 242.196 411.176 241.98 410.216 241.98C409.136 241.98 408.176 242.244 407.336 242.772C406.52 243.276 405.872 244.008 405.392 244.968C404.936 245.904 404.708 246.984 404.708 248.208C404.708 249.432 404.948 250.512 405.428 251.448C405.908 252.36 406.556 253.08 407.372 253.608C408.212 254.112 409.16 254.364 410.216 254.364ZM432.832 258.612C430.576 258.612 428.824 257.868 427.576 256.38C426.352 254.892 425.74 252.684 425.74 249.756V238.416H430.744V250.188C430.744 251.388 431.08 252.348 431.752 253.068C432.424 253.764 433.336 254.112 434.488 254.112C435.64 254.112 436.576 253.74 437.296 252.996C438.04 252.252 438.412 251.244 438.412 249.972V238.416H443.416V258H439.456V249.684H439.852C439.852 251.652 439.6 253.296 439.096 254.616C438.592 255.936 437.836 256.932 436.828 257.604C435.82 258.276 434.56 258.612 433.048 258.612H432.832ZM450.1 258V238.452H455.104V258H450.1ZM447.364 242.196V238.452H455.104V242.196H447.364ZM451.936 236.112C450.952 236.112 450.22 235.86 449.74 235.356C449.284 234.828 449.056 234.18 449.056 233.412C449.056 232.596 449.284 231.936 449.74 231.432C450.22 230.928 450.952 230.676 451.936 230.676C452.92 230.676 453.64 230.928 454.096 231.432C454.552 231.936 454.78 232.596 454.78 233.412C454.78 234.18 454.552 234.828 454.096 235.356C453.64 235.86 452.92 236.112 451.936 236.112ZM461.051 249.468V231.72H466.163V249.468H461.051ZM460.655 258V252.672H466.559V258H460.655Z" fill="black"/>
</svg>
